<svg width="32" height="32" viewBox="0 0 32 32" fill="none" xmlns="http://www.w3.org/2000/svg">
  <!-- Background circle -->
  <circle cx="16" cy="16" r="16" fill="url(#gradient)"/>
  
  <!-- Quiz/Question mark -->
  <path d="M16 8C18.2091 8 20 9.79086 20 12C20 14.2091 18.2091 16 16 16C15.4477 16 15 16.4477 15 17V19C15 19.5523 15.4477 20 16 20C16.5523 20 17 19.5523 17 19V18.5C18.1046 18.5 19 17.6046 19 16.5C19 15.3954 18.1046 14.5 17 14.5C15.8954 14.5 15 13.6046 15 12.5C15 11.3954 15.8954 10.5 17 10.5C17.5523 10.5 18 10.0523 18 9.5C18 8.94772 17.5523 8.5 17 8.5C15.8954 8.5 15 9.39543 15 10.5C15 11.6046 15.8954 12.5 17 12.5C18.1046 12.5 19 13.3954 19 14.5C19 15.6046 18.1046 16.5 17 16.5" fill="white"/>
  
  <!-- AI/Neural network dots -->
  <circle cx="24" cy="8" r="2" fill="white" opacity="0.8"/>
  <circle cx="26" cy="12" r="1.5" fill="white" opacity="0.6"/>
  <circle cx="24" cy="16" r="1" fill="white" opacity="0.4"/>
  
  <!-- Gradient definition -->
  <defs>
    <linearGradient id="gradient" x1="0%" y1="0%" x2="100%" y2="100%">
      <stop offset="0%" style="stop-color:#8B5CF6;stop-opacity:1" />
      <stop offset="100%" style="stop-color:#06B6D4;stop-opacity:1" />
    </linearGradient>
  </defs>
</svg>
